mtllib ./Standard_Mono144.mtl
v -0.567000 -1.142500 0.017500
vn 0.000000 0.000000 1.000000
vt 0.000000 0.000000
v -0.283500 -1.142500 0.017500
vn 0.000000 0.000000 1.000000
vt 0.250000 0.000000
v 0.000000 -1.142500 0.017500
vn 0.000000 0.000000 1.000000
vt 0.500000 0.000000
v 0.283500 -1.142500 0.017500
vn 0.000000 0.000000 1.000000
vt 0.750000 0.000000
v 0.567000 -1.142500 0.017500
vn 0.000000 0.000000 1.000000
vt 1.000000 0.000000
v -0.567000 -0.888611 0.017500
vn 0.000000 0.000000 1.000000
vt 0.000000 0.111111
v -0.283500 -0.888611 0.017500
vn 0.000000 0.000000 1.000000
vt 0.250000 0.111111
v 0.000000 -0.888611 0.017500
vn 0.000000 0.000000 1.000000
vt 0.500000 0.111111
v 0.283500 -0.888611 0.017500
vn 0.000000 0.000000 1.000000
vt 0.750000 0.111111
v 0.567000 -0.888611 0.017500
vn 0.000000 0.000000 1.000000
vt 1.000000 0.111111
v -0.567000 -0.634722 0.017500
vn 0.000000 0.000000 1.000000
vt 0.000000 0.222222
v -0.283500 -0.634722 0.017500
vn 0.000000 0.000000 1.000000
vt 0.250000 0.222222
v 0.000000 -0.634722 0.017500
vn 0.000000 0.000000 1.000000
vt 0.500000 0.222222
v 0.283500 -0.634722 0.017500
vn 0.000000 0.000000 1.000000
vt 0.750000 0.222222
v 0.567000 -0.634722 0.017500
vn 0.000000 0.000000 1.000000
vt 1.000000 0.222222
v -0.567000 -0.380833 0.017500
vn 0.000000 0.000000 1.000000
vt 0.000000 0.333333
v -0.283500 -0.380833 0.017500
vn 0.000000 0.000000 1.000000
vt 0.250000 0.333333
v 0.000000 -0.380833 0.017500
vn 0.000000 0.000000 1.000000
vt 0.500000 0.333333
v 0.283500 -0.380833 0.017500
vn 0.000000 0.000000 1.000000
vt 0.750000 0.333333
v 0.567000 -0.380833 0.017500
vn 0.000000 0.000000 1.000000
vt 1.000000 0.333333
v -0.567000 -0.126944 0.017500
vn 0.000000 0.000000 1.000000
vt 0.000000 0.444444
v -0.283500 -0.126944 0.017500
vn 0.000000 0.000000 1.000000
vt 0.250000 0.444444
v 0.000000 -0.126944 0.017500
vn 0.000000 0.000000 1.000000
vt 0.500000 0.444444
v 0.283500 -0.126944 0.017500
vn 0.000000 0.000000 1.000000
vt 0.750000 0.444444
v 0.567000 -0.126944 0.017500
vn 0.000000 0.000000 1.000000
vt 1.000000 0.444444
v -0.567000 0.126944 0.017500
vn 0.000000 0.000000 1.000000
vt 0.000000 0.555556
v -0.283500 0.126944 0.017500
vn 0.000000 0.000000 1.000000
vt 0.250000 0.555556
v 0.000000 0.126944 0.017500
vn 0.000000 0.000000 1.000000
vt 0.500000 0.555556
v 0.283500 0.126944 0.017500
vn 0.000000 0.000000 1.000000
vt 0.750000 0.555556
v 0.567000 0.126944 0.017500
vn 0.000000 0.000000 1.000000
vt 1.000000 0.555556
v -0.567000 0.380833 0.017500
vn 0.000000 0.000000 1.000000
vt 0.000000 0.666667
v -0.283500 0.380833 0.017500
vn 0.000000 0.000000 1.000000
vt 0.250000 0.666667
v 0.000000 0.380833 0.017500
vn 0.000000 0.000000 1.000000
vt 0.500000 0.666667
v 0.283500 0.380833 0.017500
vn 0.000000 0.000000 1.000000
vt 0.750000 0.666667
v 0.567000 0.380833 0.017500
vn 0.000000 0.000000 1.000000
vt 1.000000 0.666667
v -0.567000 0.634722 0.017500
vn 0.000000 0.000000 1.000000
vt 0.000000 0.777778
v -0.283500 0.634722 0.017500
vn 0.000000 0.000000 1.000000
vt 0.250000 0.777778
v 0.000000 0.634722 0.017500
vn 0.000000 0.000000 1.000000
vt 0.500000 0.777778
v 0.283500 0.634722 0.017500
vn 0.000000 0.000000 1.000000
vt 0.750000 0.777778
v 0.567000 0.634722 0.017500
vn 0.000000 0.000000 1.000000
vt 1.000000 0.777778
v -0.567000 0.888611 0.017500
vn 0.000000 0.000000 1.000000
vt 0.000000 0.888889
v -0.283500 0.888611 0.017500
vn 0.000000 0.000000 1.000000
vt 0.250000 0.888889
v 0.000000 0.888611 0.017500
vn 0.000000 0.000000 1.000000
vt 0.500000 0.888889
v 0.283500 0.888611 0.017500
vn 0.000000 0.000000 1.000000
vt 0.750000 0.888889
v 0.567000 0.888611 0.017500
vn 0.000000 0.000000 1.000000
vt 1.000000 0.888889
v -0.567000 1.142500 0.017500
vn 0.000000 0.000000 1.000000
vt 0.000000 1.000000
v -0.283500 1.142500 0.017500
vn 0.000000 0.000000 1.000000
vt 0.250000 1.000000
v 0.000000 1.142500 0.017500
vn 0.000000 0.000000 1.000000
vt 0.500000 1.000000
v 0.283500 1.142500 0.017500
vn 0.000000 0.000000 1.000000
vt 0.750000 1.000000
v 0.567000 1.142500 0.017500
vn 0.000000 0.000000 1.000000
vt 1.000000 1.000000
v -0.567000 -1.142500 -0.017500
vn 0.000000 0.000000 -1.000000
vt 0.000000 0.000000
v -0.283500 -1.142500 -0.017500
vn 0.000000 0.000000 -1.000000
vt 0.250000 0.000000
v 0.000000 -1.142500 -0.017500
vn 0.000000 0.000000 -1.000000
vt 0.500000 0.000000
v 0.283500 -1.142500 -0.017500
vn 0.000000 0.000000 -1.000000
vt 0.750000 0.000000
v 0.567000 -1.142500 -0.017500
vn 0.000000 0.000000 -1.000000
vt 1.000000 0.000000
v -0.567000 -0.888611 -0.017500
vn 0.000000 0.000000 -1.000000
vt 0.000000 0.111111
v -0.283500 -0.888611 -0.017500
vn 0.000000 0.000000 -1.000000
vt 0.250000 0.111111
v 0.000000 -0.888611 -0.017500
vn 0.000000 0.000000 -1.000000
vt 0.500000 0.111111
v 0.283500 -0.888611 -0.017500
vn 0.000000 0.000000 -1.000000
vt 0.750000 0.111111
v 0.567000 -0.888611 -0.017500
vn 0.000000 0.000000 -1.000000
vt 1.000000 0.111111
v -0.567000 -0.634722 -0.017500
vn 0.000000 0.000000 -1.000000
vt 0.000000 0.222222
v -0.283500 -0.634722 -0.017500
vn 0.000000 0.000000 -1.000000
vt 0.250000 0.222222
v 0.000000 -0.634722 -0.017500
vn 0.000000 0.000000 -1.000000
vt 0.500000 0.222222
v 0.283500 -0.634722 -0.017500
vn 0.000000 0.000000 -1.000000
vt 0.750000 0.222222
v 0.567000 -0.634722 -0.017500
vn 0.000000 0.000000 -1.000000
vt 1.000000 0.222222
v -0.567000 -0.380833 -0.017500
vn 0.000000 0.000000 -1.000000
vt 0.000000 0.333333
v -0.283500 -0.380833 -0.017500
vn 0.000000 0.000000 -1.000000
vt 0.250000 0.333333
v 0.000000 -0.380833 -0.017500
vn 0.000000 0.000000 -1.000000
vt 0.500000 0.333333
v 0.283500 -0.380833 -0.017500
vn 0.000000 0.000000 -1.000000
vt 0.750000 0.333333
v 0.567000 -0.380833 -0.017500
vn 0.000000 0.000000 -1.000000
vt 1.000000 0.333333
v -0.567000 -0.126944 -0.017500
vn 0.000000 0.000000 -1.000000
vt 0.000000 0.444444
v -0.283500 -0.126944 -0.017500
vn 0.000000 0.000000 -1.000000
vt 0.250000 0.444444
v 0.000000 -0.126944 -0.017500
vn 0.000000 0.000000 -1.000000
vt 0.500000 0.444444
v 0.283500 -0.126944 -0.017500
vn 0.000000 0.000000 -1.000000
vt 0.750000 0.444444
v 0.567000 -0.126944 -0.017500
vn 0.000000 0.000000 -1.000000
vt 1.000000 0.444444
v -0.567000 0.126944 -0.017500
vn 0.000000 0.000000 -1.000000
vt 0.000000 0.555556
v -0.283500 0.126944 -0.017500
vn 0.000000 0.000000 -1.000000
vt 0.250000 0.555556
v 0.000000 0.126944 -0.017500
vn 0.000000 0.000000 -1.000000
vt 0.500000 0.555556
v 0.283500 0.126944 -0.017500
vn 0.000000 0.000000 -1.000000
vt 0.750000 0.555556
v 0.567000 0.126944 -0.017500
vn 0.000000 0.000000 -1.000000
vt 1.000000 0.555556
v -0.567000 0.380833 -0.017500
vn 0.000000 0.000000 -1.000000
vt 0.000000 0.666667
v -0.283500 0.380833 -0.017500
vn 0.000000 0.000000 -1.000000
vt 0.250000 0.666667
v 0.000000 0.380833 -0.017500
vn 0.000000 0.000000 -1.000000
vt 0.500000 0.666667
v 0.283500 0.380833 -0.017500
vn 0.000000 0.000000 -1.000000
vt 0.750000 0.666667
v 0.567000 0.380833 -0.017500
vn 0.000000 0.000000 -1.000000
vt 1.000000 0.666667
v -0.567000 0.634722 -0.017500
vn 0.000000 0.000000 -1.000000
vt 0.000000 0.777778
v -0.283500 0.634722 -0.017500
vn 0.000000 0.000000 -1.000000
vt 0.250000 0.777778
v 0.000000 0.634722 -0.017500
vn 0.000000 0.000000 -1.000000
vt 0.500000 0.777778
v 0.283500 0.634722 -0.017500
vn 0.000000 0.000000 -1.000000
vt 0.750000 0.777778
v 0.567000 0.634722 -0.017500
vn 0.000000 0.000000 -1.000000
vt 1.000000 0.777778
v -0.567000 0.888611 -0.017500
vn 0.000000 0.000000 -1.000000
vt 0.000000 0.888889
v -0.283500 0.888611 -0.017500
vn 0.000000 0.000000 -1.000000
vt 0.250000 0.888889
v 0.000000 0.888611 -0.017500
vn 0.000000 0.000000 -1.000000
vt 0.500000 0.888889
v 0.283500 0.888611 -0.017500
vn 0.000000 0.000000 -1.000000
vt 0.750000 0.888889
v 0.567000 0.888611 -0.017500
vn 0.000000 0.000000 -1.000000
vt 1.000000 0.888889
v -0.567000 1.142500 -0.017500
vn 0.000000 0.000000 -1.000000
vt 0.000000 1.000000
v -0.283500 1.142500 -0.017500
vn 0.000000 0.000000 -1.000000
vt 0.250000 1.000000
v 0.000000 1.142500 -0.017500
vn 0.000000 0.000000 -1.000000
vt 0.500000 1.000000
v 0.283500 1.142500 -0.017500
vn 0.000000 0.000000 -1.000000
vt 0.750000 1.000000
v 0.567000 1.142500 -0.017500
vn 0.000000 0.000000 -1.000000
vt 1.000000 1.000000
v -0.567000 -1.142500 0.017500
vn 0.000000 -1.000000 0.000000
vt -0.567000 0.017500
v -0.567000 -1.142500 -0.017500
vn 0.000000 -1.000000 0.000000
vt -0.567000 -1.142500
v -0.283500 -1.142500 0.017500
vn 0.000000 -1.000000 0.000000
vt -0.283500 0.017500
v -0.283500 -1.142500 -0.017500
vn 0.000000 -1.000000 0.000000
vt -0.283500 -1.142500
v 0.000000 -1.142500 0.017500
vn 0.000000 -1.000000 0.000000
vt 0.000000 0.017500
v 0.000000 -1.142500 -0.017500
vn 0.000000 -1.000000 0.000000
vt 0.000000 -1.142500
v 0.283500 -1.142500 0.017500
vn 0.000000 -1.000000 0.000000
vt 0.283500 0.017500
v 0.283500 -1.142500 -0.017500
vn 0.000000 -1.000000 0.000000
vt 0.283500 -1.142500
v 0.567000 -1.142500 0.017500
vn 0.000000 -1.000000 0.000000
vt 0.567000 0.017500
v 0.567000 -1.142500 -0.017500
vn 0.000000 -1.000000 0.000000
vt 0.567000 -1.142500
v 0.567000 -1.142500 0.017500
vn 1.000000 0.000000 0.000000
vt 0.567000 -1.142500
v 0.567000 -1.142500 -0.017500
vn 1.000000 0.000000 0.000000
vt 0.567000 -1.142500
v 0.567000 -0.888611 0.017500
vn 1.000000 0.000000 0.000000
vt 0.567000 -0.888611
v 0.567000 -0.888611 -0.017500
vn 1.000000 0.000000 0.000000
vt 0.567000 -0.888611
v 0.567000 -0.634722 0.017500
vn 1.000000 0.000000 0.000000
vt 0.567000 -0.634722
v 0.567000 -0.634722 -0.017500
vn 1.000000 0.000000 0.000000
vt 0.567000 -0.634722
v 0.567000 -0.380833 0.017500
vn 1.000000 0.000000 0.000000
vt 0.567000 -0.380833
v 0.567000 -0.380833 -0.017500
vn 1.000000 0.000000 0.000000
vt 0.567000 -0.380833
v 0.567000 -0.126944 0.017500
vn 1.000000 0.000000 0.000000
vt 0.567000 -0.126944
v 0.567000 -0.126944 -0.017500
vn 1.000000 0.000000 0.000000
vt 0.567000 -0.126944
v 0.567000 0.126944 0.017500
vn 1.000000 0.000000 0.000000
vt 0.567000 0.126944
v 0.567000 0.126944 -0.017500
vn 1.000000 0.000000 0.000000
vt 0.567000 0.126944
v 0.567000 0.380833 0.017500
vn 1.000000 0.000000 0.000000
vt 0.567000 0.380833
v 0.567000 0.380833 -0.017500
vn 1.000000 0.000000 0.000000
vt 0.567000 0.380833
v 0.567000 0.634722 0.017500
vn 1.000000 0.000000 0.000000
vt 0.567000 0.634722
v 0.567000 0.634722 -0.017500
vn 1.000000 0.000000 0.000000
vt 0.567000 0.634722
v 0.567000 0.888611 0.017500
vn 1.000000 0.000000 0.000000
vt 0.567000 0.888611
v 0.567000 0.888611 -0.017500
vn 1.000000 0.000000 0.000000
vt 0.567000 0.888611
v 0.567000 1.142500 0.017500
vn 1.000000 0.000000 0.000000
vt 0.567000 1.142500
v 0.567000 1.142500 -0.017500
vn 1.000000 0.000000 0.000000
vt 0.567000 1.142500
v 0.567000 1.142500 0.017500
vn 0.000000 1.000000 0.000000
vt 0.567000 0.017500
v 0.567000 1.142500 -0.017500
vn 0.000000 1.000000 0.000000
vt 0.567000 1.142500
v 0.283500 1.142500 0.017500
vn 0.000000 1.000000 0.000000
vt 0.283500 0.017500
v 0.283500 1.142500 -0.017500
vn 0.000000 1.000000 0.000000
vt 0.283500 1.142500
v 0.000000 1.142500 0.017500
vn 0.000000 1.000000 0.000000
vt 0.000000 0.017500
v 0.000000 1.142500 -0.017500
vn 0.000000 1.000000 0.000000
vt 0.000000 1.142500
v -0.283500 1.142500 0.017500
vn 0.000000 1.000000 0.000000
vt -0.283500 0.017500
v -0.283500 1.142500 -0.017500
vn 0.000000 1.000000 0.000000
vt -0.283500 1.142500
v -0.567000 1.142500 0.017500
vn 0.000000 1.000000 0.000000
vt -0.567000 0.017500
v -0.567000 1.142500 -0.017500
vn 0.000000 1.000000 0.000000
vt -0.567000 1.142500
v -0.567000 1.142500 0.017500
vn -1.000000 0.000000 0.000000
vt -0.567000 1.142500
v -0.567000 1.142500 -0.017500
vn -1.000000 0.000000 0.000000
vt -0.567000 1.142500
v -0.567000 0.888611 0.017500
vn -1.000000 0.000000 0.000000
vt -0.567000 0.888611
v -0.567000 0.888611 -0.017500
vn -1.000000 0.000000 0.000000
vt -0.567000 0.888611
v -0.567000 0.634722 0.017500
vn -1.000000 0.000000 0.000000
vt -0.567000 0.634722
v -0.567000 0.634722 -0.017500
vn -1.000000 0.000000 0.000000
vt -0.567000 0.634722
v -0.567000 0.380833 0.017500
vn -1.000000 0.000000 0.000000
vt -0.567000 0.380833
v -0.567000 0.380833 -0.017500
vn -1.000000 0.000000 0.000000
vt -0.567000 0.380833
v -0.567000 0.126944 0.017500
vn -1.000000 0.000000 0.000000
vt -0.567000 0.126944
v -0.567000 0.126944 -0.017500
vn -1.000000 0.000000 0.000000
vt -0.567000 0.126944
v -0.567000 -0.126944 0.017500
vn -1.000000 0.000000 0.000000
vt -0.567000 -0.126944
v -0.567000 -0.126944 -0.017500
vn -1.000000 0.000000 0.000000
vt -0.567000 -0.126944
v -0.567000 -0.380833 0.017500
vn -1.000000 0.000000 0.000000
vt -0.567000 -0.380833
v -0.567000 -0.380833 -0.017500
vn -1.000000 0.000000 0.000000
vt -0.567000 -0.380833
v -0.567000 -0.634722 0.017500
vn -1.000000 0.000000 0.000000
vt -0.567000 -0.634722
v -0.567000 -0.634722 -0.017500
vn -1.000000 0.000000 0.000000
vt -0.567000 -0.634722
v -0.567000 -0.888611 0.017500
vn -1.000000 0.000000 0.000000
vt -0.567000 -0.888611
v -0.567000 -0.888611 -0.017500
vn -1.000000 0.000000 0.000000
vt -0.567000 -0.888611
v -0.567000 -1.142500 0.017500
vn -1.000000 0.000000 0.000000
vt -0.567000 -1.142500
v -0.567000 -1.142500 -0.017500
vn -1.000000 0.000000 0.000000
vt -0.567000 -1.142500
usemtl material_front
f 1/1/1 2/2/2 6/6/6
f 2/2/2 7/7/7 6/6/6
f 2/2/2 3/3/3 7/7/7
f 3/3/3 8/8/8 7/7/7
f 3/3/3 4/4/4 8/8/8
f 4/4/4 9/9/9 8/8/8
f 4/4/4 5/5/5 9/9/9
f 5/5/5 10/10/10 9/9/9
f 6/6/6 7/7/7 11/11/11
f 7/7/7 12/12/12 11/11/11
f 7/7/7 8/8/8 12/12/12
f 8/8/8 13/13/13 12/12/12
f 8/8/8 9/9/9 13/13/13
f 9/9/9 14/14/14 13/13/13
f 9/9/9 10/10/10 14/14/14
f 10/10/10 15/15/15 14/14/14
f 11/11/11 12/12/12 16/16/16
f 12/12/12 17/17/17 16/16/16
f 12/12/12 13/13/13 17/17/17
f 13/13/13 18/18/18 17/17/17
f 13/13/13 14/14/14 18/18/18
f 14/14/14 19/19/19 18/18/18
f 14/14/14 15/15/15 19/19/19
f 15/15/15 20/20/20 19/19/19
f 16/16/16 17/17/17 21/21/21
f 17/17/17 22/22/22 21/21/21
f 17/17/17 18/18/18 22/22/22
f 18/18/18 23/23/23 22/22/22
f 18/18/18 19/19/19 23/23/23
f 19/19/19 24/24/24 23/23/23
f 19/19/19 20/20/20 24/24/24
f 20/20/20 25/25/25 24/24/24
f 21/21/21 22/22/22 26/26/26
f 22/22/22 27/27/27 26/26/26
f 22/22/22 23/23/23 27/27/27
f 23/23/23 28/28/28 27/27/27
f 23/23/23 24/24/24 28/28/28
f 24/24/24 29/29/29 28/28/28
f 24/24/24 25/25/25 29/29/29
f 25/25/25 30/30/30 29/29/29
f 26/26/26 27/27/27 31/31/31
f 27/27/27 32/32/32 31/31/31
f 27/27/27 28/28/28 32/32/32
f 28/28/28 33/33/33 32/32/32
f 28/28/28 29/29/29 33/33/33
f 29/29/29 34/34/34 33/33/33
f 29/29/29 30/30/30 34/34/34
f 30/30/30 35/35/35 34/34/34
f 31/31/31 32/32/32 36/36/36
f 32/32/32 37/37/37 36/36/36
f 32/32/32 33/33/33 37/37/37
f 33/33/33 38/38/38 37/37/37
f 33/33/33 34/34/34 38/38/38
f 34/34/34 39/39/39 38/38/38
f 34/34/34 35/35/35 39/39/39
f 35/35/35 40/40/40 39/39/39
f 36/36/36 37/37/37 41/41/41
f 37/37/37 42/42/42 41/41/41
f 37/37/37 38/38/38 42/42/42
f 38/38/38 43/43/43 42/42/42
f 38/38/38 39/39/39 43/43/43
f 39/39/39 44/44/44 43/43/43
f 39/39/39 40/40/40 44/44/44
f 40/40/40 45/45/45 44/44/44
f 41/41/41 42/42/42 46/46/46
f 42/42/42 47/47/47 46/46/46
f 42/42/42 43/43/43 47/47/47
f 43/43/43 48/48/48 47/47/47
f 43/43/43 44/44/44 48/48/48
f 44/44/44 49/49/49 48/48/48
f 44/44/44 45/45/45 49/49/49
f 45/45/45 50/50/50 49/49/49
usemtl material_rear
f 51/51/51 56/56/56 52/52/52
f 52/52/52 56/56/56 57/57/57
f 52/52/52 57/57/57 53/53/53
f 53/53/53 57/57/57 58/58/58
f 53/53/53 58/58/58 54/54/54
f 54/54/54 58/58/58 59/59/59
f 54/54/54 59/59/59 55/55/55
f 55/55/55 59/59/59 60/60/60
f 56/56/56 61/61/61 57/57/57
f 57/57/57 61/61/61 62/62/62
f 57/57/57 62/62/62 58/58/58
f 58/58/58 62/62/62 63/63/63
f 58/58/58 63/63/63 59/59/59
f 59/59/59 63/63/63 64/64/64
f 59/59/59 64/64/64 60/60/60
f 60/60/60 64/64/64 65/65/65
f 61/61/61 66/66/66 62/62/62
f 62/62/62 66/66/66 67/67/67
f 62/62/62 67/67/67 63/63/63
f 63/63/63 67/67/67 68/68/68
f 63/63/63 68/68/68 64/64/64
f 64/64/64 68/68/68 69/69/69
f 64/64/64 69/69/69 65/65/65
f 65/65/65 69/69/69 70/70/70
f 66/66/66 71/71/71 67/67/67
f 67/67/67 71/71/71 72/72/72
f 67/67/67 72/72/72 68/68/68
f 68/68/68 72/72/72 73/73/73
f 68/68/68 73/73/73 69/69/69
f 69/69/69 73/73/73 74/74/74
f 69/69/69 74/74/74 70/70/70
f 70/70/70 74/74/74 75/75/75
f 71/71/71 76/76/76 72/72/72
f 72/72/72 76/76/76 77/77/77
f 72/72/72 77/77/77 73/73/73
f 73/73/73 77/77/77 78/78/78
f 73/73/73 78/78/78 74/74/74
f 74/74/74 78/78/78 79/79/79
f 74/74/74 79/79/79 75/75/75
f 75/75/75 79/79/79 80/80/80
f 76/76/76 81/81/81 77/77/77
f 77/77/77 81/81/81 82/82/82
f 77/77/77 82/82/82 78/78/78
f 78/78/78 82/82/82 83/83/83
f 78/78/78 83/83/83 79/79/79
f 79/79/79 83/83/83 84/84/84
f 79/79/79 84/84/84 80/80/80
f 80/80/80 84/84/84 85/85/85
f 81/81/81 86/86/86 82/82/82
f 82/82/82 86/86/86 87/87/87
f 82/82/82 87/87/87 83/83/83
f 83/83/83 87/87/87 88/88/88
f 83/83/83 88/88/88 84/84/84
f 84/84/84 88/88/88 89/89/89
f 84/84/84 89/89/89 85/85/85
f 85/85/85 89/89/89 90/90/90
f 86/86/86 91/91/91 87/87/87
f 87/87/87 91/91/91 92/92/92
f 87/87/87 92/92/92 88/88/88
f 88/88/88 92/92/92 93/93/93
f 88/88/88 93/93/93 89/89/89
f 89/89/89 93/93/93 94/94/94
f 89/89/89 94/94/94 90/90/90
f 90/90/90 94/94/94 95/95/95
f 91/91/91 96/96/96 92/92/92
f 92/92/92 96/96/96 97/97/97
f 92/92/92 97/97/97 93/93/93
f 93/93/93 97/97/97 98/98/98
f 93/93/93 98/98/98 94/94/94
f 94/94/94 98/98/98 99/99/99
f 94/94/94 99/99/99 95/95/95
f 95/95/95 99/99/99 100/100/100
usemtl material_lateral
f 101/101/101 102/102/102 103/103/103
f 102/102/102 104/104/104 103/103/103
f 103/103/103 104/104/104 105/105/105
f 104/104/104 106/106/106 105/105/105
f 105/105/105 106/106/106 107/107/107
f 106/106/106 108/108/108 107/107/107
f 107/107/107 108/108/108 109/109/109
f 108/108/108 110/110/110 109/109/109
f 111/111/111 112/112/112 113/113/113
f 112/112/112 114/114/114 113/113/113
f 113/113/113 114/114/114 115/115/115
f 114/114/114 116/116/116 115/115/115
f 115/115/115 116/116/116 117/117/117
f 116/116/116 118/118/118 117/117/117
f 117/117/117 118/118/118 119/119/119
f 118/118/118 120/120/120 119/119/119
f 119/119/119 120/120/120 121/121/121
f 120/120/120 122/122/122 121/121/121
f 121/121/121 122/122/122 123/123/123
f 122/122/122 124/124/124 123/123/123
f 123/123/123 124/124/124 125/125/125
f 124/124/124 126/126/126 125/125/125
f 125/125/125 126/126/126 127/127/127
f 126/126/126 128/128/128 127/127/127
f 127/127/127 128/128/128 129/129/129
f 128/128/128 130/130/130 129/129/129
f 131/131/131 132/132/132 133/133/133
f 132/132/132 134/134/134 133/133/133
f 133/133/133 134/134/134 135/135/135
f 134/134/134 136/136/136 135/135/135
f 135/135/135 136/136/136 137/137/137
f 136/136/136 138/138/138 137/137/137
f 137/137/137 138/138/138 139/139/139
f 138/138/138 140/140/140 139/139/139
f 141/141/141 142/142/142 143/143/143
f 142/142/142 144/144/144 143/143/143
f 143/143/143 144/144/144 145/145/145
f 144/144/144 146/146/146 145/145/145
f 145/145/145 146/146/146 147/147/147
f 146/146/146 148/148/148 147/147/147
f 147/147/147 148/148/148 149/149/149
f 148/148/148 150/150/150 149/149/149
f 149/149/149 150/150/150 151/151/151
f 150/150/150 152/152/152 151/151/151
f 151/151/151 152/152/152 153/153/153
f 152/152/152 154/154/154 153/153/153
f 153/153/153 154/154/154 155/155/155
f 154/154/154 156/156/156 155/155/155
f 155/155/155 156/156/156 157/157/157
f 156/156/156 158/158/158 157/157/157
f 157/157/157 158/158/158 159/159/159
f 158/158/158 160/160/160 159/159/159
